<svg width="137" height="30" viewBox="0 0 137 30" fill="none" xmlns="http://www.w3.org/2000/svg">
<g clip-path="url(#clip0_1_51)">
<g filter="url(#filter0_d_1_51)">
<path d="M137 29.0565H133.259L126.867 21.564L120.506 29.0565H116.787L125.001 19.3785L117.233 10.2765H120.974L126.862 17.1795L132.721 10.2765H136.441L128.727 19.3665L137 29.055V29.0565ZM105.364 30C99.5614 30 94.8582 25.3725 94.8582 19.665C94.8582 13.959 99.5629 9.3345 105.365 9.3345C111.167 9.3345 115.87 13.9605 115.87 19.6665C115.87 25.374 111.166 30 105.362 30H105.364ZM105.385 12.126C102.289 12.126 99.4996 13.9575 98.3148 16.77C97.7364 18.1454 97.5853 19.6621 97.8811 21.124C98.1769 22.5858 98.9058 23.9257 99.9739 24.9705C101.051 26.0247 102.415 26.7409 103.897 27.0307C105.379 27.3205 106.914 27.1711 108.311 26.601C109.702 26.0406 110.895 25.08 111.735 23.8417C112.576 22.6034 113.028 21.1436 113.033 19.6485C113.033 15.4935 109.608 12.126 105.385 12.126ZM81.0016 29.52C75.1227 29.52 73.3582 28.11 73.3582 28.11V0.8595H76.2247V10.74C77.7212 10.065 79.3561 9.735 81.0016 9.78C86.8068 9.78 91.513 13.938 91.513 19.641C91.513 25.3455 86.8023 29.52 80.9986 29.52H81.0016ZM81.0016 12.6045C79.2928 12.6275 77.6297 13.1576 76.2247 14.127V25.761C77.7118 26.4711 79.3552 26.7947 81.0016 26.7015C85.223 26.7015 88.6465 23.8005 88.6465 19.653C88.6465 15.5055 85.22 12.603 80.9986 12.603L81.0016 12.6045ZM63.8029 0.858H66.6693V29.0505H63.8029V0.858ZM54.2475 0.858H57.1139V29.0505H54.2475V0.858ZM46.0305 5.055C45.7201 5.05698 45.4123 4.99802 45.1248 4.88149C44.8373 4.76496 44.5756 4.59315 44.3547 4.37586C44.1339 4.15857 43.9581 3.90006 43.8375 3.61509C43.7169 3.33011 43.6538 3.02426 43.6518 2.715C43.6518 1.425 44.7177 0.3765 46.0305 0.3765C47.3448 0.3765 48.4092 1.425 48.4092 2.7165C48.4092 3.336 48.1593 3.9315 47.7121 4.371C47.2635 4.81027 46.6595 5.05598 46.0305 5.055ZM36.5685 29.0505L26.5419 19.1895L35.6185 10.2555H39.6713L30.5932 19.1895L40.6197 29.0505H36.5685ZM23.6679 29.0505V0.858H26.5343V29.0505H23.6679ZM19.1273 21.3825C19.1273 26.094 15.3124 29.5125 9.25126 29.5125C5.74716 29.4202 2.42175 27.9515 0 25.4265L2.0264 23.2215C3.92332 24.9975 6.15597 26.724 9.21212 26.724C12.607 26.724 16.2669 24.852 16.2669 21.489C16.2669 18.6975 14.0101 16.875 9.26782 15.438C3.8631 13.8165 1.12009 11.613 1.12009 7.467C1.12009 3.366 4.64897 0 9.67732 0C13.4335 0 15.7836 1.575 18.0704 3.585L16.0787 5.763C14.0734 4.014 12.1614 2.8305 9.81582 2.8305C6.90871 2.8305 4.03623 4.6755 4.03623 7.3305C4.03623 9.7365 5.44236 11.2695 10.4075 12.7635C14.9541 14.1405 19.1273 16.2735 19.1273 21.3825ZM47.5661 29.0505H44.6981V10.2555H47.5646V29.0505H47.5661Z" fill="#333333"/>
<path d="M73.8582 1.3595V27.8344C73.8868 27.8502 73.9188 27.8673 73.9543 27.8856C74.1828 28.003 74.5584 28.1681 75.1189 28.3361C76.2402 28.6722 78.1015 29.02 81.0016 29.02V29.52C86.8039 29.5186 91.513 25.3445 91.513 19.641C91.513 13.938 86.8068 9.78 81.0016 9.78L73.8582 1.3595ZM73.8582 1.3595H75.7247V10.74V11.514L76.4303 11.1958C77.8581 10.5517 79.4182 10.2369 80.988 10.2798V10.28H81.0016C86.5701 10.28 91.013 14.252 91.013 19.641C91.013 25.0324 86.5646 29.02 80.9986 29.02V29.52M73.8582 1.3595L80.9986 29.52M80.9986 29.52C75.1221 29.5195 73.3582 28.11 73.3582 28.11L80.9986 29.52ZM46.0273 4.55501L46.0313 4.55498C46.5291 4.55578 47.0069 4.36139 47.3616 4.01442L46.0273 4.55501ZM46.0273 4.55501C45.7823 4.55657 45.5395 4.51003 45.3126 4.4181M46.0273 4.55501L45.3126 4.4181M95.3582 19.665C95.3582 25.0882 99.829 29.4992 105.362 29.5L95.3582 19.665ZM95.3582 19.665C95.3582 14.2431 99.831 9.8345 105.365 9.8345M95.3582 19.665L105.365 9.8345M105.365 9.8345C110.899 9.8345 115.37 14.2444 115.37 19.6665M105.365 9.8345L115.37 19.6665M115.37 19.6665C115.37 25.0895 110.898 29.4992 105.364 29.5L115.37 19.6665ZM45.3126 4.4181C45.0858 4.32617 44.8795 4.19066 44.7054 4.01942M45.3126 4.4181L44.7054 4.01942M44.7054 4.01942C44.5313 3.84817 44.3929 3.64454 44.2979 3.42021M44.7054 4.01942L44.2979 3.42021M44.2979 3.42021C44.2032 3.19641 44.1536 2.95632 44.1518 2.71357M44.2979 3.42021L44.1518 2.71357M44.1518 2.71357C44.1526 1.70826 44.9864 0.8765 46.0305 0.8765C47.0762 0.8765 47.9092 1.70864 47.9092 2.7165C47.9092 3.20061 47.7141 3.66764 47.3623 4.01376L44.1518 2.71357ZM126.485 21.2404L120.274 28.5565H117.867L125.382 19.702L125.658 19.3776L125.382 19.0539L118.317 10.7765H120.743L126.482 17.504L126.863 17.9511L127.243 17.5031L132.953 10.7765H135.361L128.346 19.043L128.071 19.3675L128.347 19.6912L135.917 28.5565H133.49L127.247 21.2395L126.866 20.7925L126.485 21.2404ZM97.854 16.5759L97.8539 16.5762C97.2366 18.0441 97.0754 19.6628 97.391 21.2231C97.7067 22.7834 98.4847 24.2132 99.6242 25.3279C100.772 26.4504 102.224 27.2129 103.801 27.5214C105.378 27.8299 107.012 27.671 108.499 27.0644C109.982 26.4669 111.253 25.4429 112.149 24.1226C113.046 22.802 113.528 21.2449 113.533 19.65V19.6485C113.533 15.2095 109.876 11.626 105.385 11.626C102.092 11.626 99.1185 13.5744 97.854 16.5759ZM80.9986 12.103L80.9951 12.1181L80.9949 12.1045C79.1871 12.1289 77.4274 12.6897 75.9407 13.7155L75.7247 13.8645V14.127V25.761V26.0763L76.0092 26.2122C77.5681 26.9566 79.2901 27.2968 81.0158 27.2015C85.4556 27.195 89.1465 24.1207 89.1465 19.653C89.1465 15.1805 85.4446 12.103 80.9986 12.103ZM38.4504 10.7555L30.2424 18.8331L29.8802 19.1896L30.2426 19.546L39.3983 28.5505H36.7731L27.2548 19.1894L35.8233 10.7555H38.4504ZM26.0343 19.3916V28.5505H24.1679V1.358H26.0343V18.9875L25.8289 19.1896L26.0343 19.3916ZM0.691629 25.4128L2.05551 23.9287C3.89891 25.6031 6.15903 27.224 9.21212 27.224C10.9922 27.224 12.8555 26.7351 14.289 25.7843C15.7309 24.8279 16.7669 23.3781 16.7669 21.489C16.7669 19.9318 16.1265 18.6438 14.8697 17.5747C13.635 16.5244 11.8077 15.6852 9.41282 14.9595L9.4115 14.9591C6.73432 14.1559 4.78559 13.2269 3.50852 12.0338C2.25507 10.8628 1.62009 9.41091 1.62009 7.467C1.62009 3.69221 4.87223 0.5 9.67732 0.5C13.0525 0.5 15.2327 1.82009 17.3547 3.62673L16.0364 5.06834C14.1281 3.46368 12.1937 2.3305 9.81582 2.3305C8.2631 2.3305 6.71306 2.82154 5.54017 3.68168C4.36424 4.54405 3.53623 5.8058 3.53623 7.3305C3.53623 8.65505 3.93384 9.78292 5.02635 10.7614C6.08325 11.7081 7.76382 12.4901 10.2626 13.242C12.5198 13.9257 14.6201 14.7799 16.1521 16.0575C17.661 17.3158 18.6273 18.9902 18.6273 21.3825C18.6273 23.5937 17.7365 25.4853 16.1398 26.8321C14.5382 28.1831 12.1937 29.0113 9.25784 29.0125C6.04437 28.9262 2.98781 27.6373 0.691629 25.4128ZM45.1981 28.5505V10.7555H47.0646V28.5505H45.1981ZM64.3029 1.358H66.1693V28.5505H64.3029V1.358ZM54.7475 1.358H56.6139V28.5505H54.7475V1.358Z" stroke="black"/>
</g>
</g>
<defs>
<filter id="filter0_d_1_51" x="-4" y="0" width="145" height="38" filterUnits="userSpaceOnUse" color-interpolation-filters="sRGB">
<feFlood flood-opacity="0" result="BackgroundImageFix"/>
<feColorMatrix in="SourceAlpha" type="matrix" values="0 0 0 0 0 0 0 0 0 0 0 0 0 0 0 0 0 0 127 0" result="hardAlpha"/>
<feOffset dy="4"/>
<feGaussianBlur stdDeviation="2"/>
<feComposite in2="hardAlpha" operator="out"/>
<feColorMatrix type="matrix" values="0 0 0 0 0 0 0 0 0 0 0 0 0 0 0 0 0 0 0.25 0"/>
<feBlend mode="normal" in2="BackgroundImageFix" result="effect1_dropShadow_1_51"/>
<feBlend mode="normal" in="SourceGraphic" in2="effect1_dropShadow_1_51" result="shape"/>
</filter>
<clipPath id="clip0_1_51">
<rect width="137" height="30" fill="white"/>
</clipPath>
</defs>
</svg>
